<svg width="210" height="47" viewBox="0 0 210 47" fill="none" xmlns="http://www.w3.org/2000/svg">
<mask id="path-1-inside-1_138_6" fill="white">
<path d="M40.3993 11.5419L10.5481 8.28782L8.72835 1.49572C8.66466 1.26815 8.52736 1.06726 8.33727 0.923537C8.14718 0.779811 7.91468 0.701095 7.67506 0.699334H3.1939C3.03225 0.484241 2.82207 0.309101 2.57994 0.187736C2.33781 0.0663701 2.07036 0.00210087 1.7987 0C1.32165 0 0.864147 0.18668 0.526826 0.518972C0.189505 0.851265 0 1.30195 0 1.77188C0 2.24182 0.189505 2.6925 0.526826 3.02479C0.864147 3.35709 1.32165 3.54377 1.7987 3.54377C2.37822 3.54377 2.86792 3.25833 3.1968 2.84158H6.8362L14.4135 31.1004C13.5867 31.9669 13.1257 33.111 13.124 34.3002C13.1235 34.9174 13.2464 35.5287 13.4859 36.0991C13.7254 36.6694 14.0766 37.1877 14.5196 37.6242C14.9626 38.0607 15.4886 38.4069 16.0675 38.643C16.6464 38.8791 17.2669 39.0004 17.8935 39C19.1595 39.0004 20.3738 38.5055 21.2695 37.6242C22.1653 36.7429 22.6691 35.5473 22.6702 34.3002C22.6676 33.9427 22.6224 33.5868 22.5355 33.2398H30.5517C30.4666 33.5871 30.4219 33.9429 30.4185 34.3002C30.4185 36.8977 32.5569 39 35.1937 39C37.8306 39 39.9647 36.8977 39.9647 34.3002C39.965 33.0528 39.4625 31.8564 38.5675 30.974C37.6726 30.0916 36.4585 29.5954 35.1923 29.5947C33.8159 29.5947 32.5844 30.1798 31.7122 31.0975H21.3735C20.9296 30.6247 20.3914 30.2471 19.7926 29.9885C19.1938 29.73 18.5473 29.5959 17.8935 29.5947C17.343 29.5947 16.8243 29.706 16.3331 29.8744L16.0695 28.8953H37.1974C38.0094 28.879 38.7922 28.5943 39.4202 28.087C40.0482 27.5797 40.4848 26.8792 40.6601 26.098L42.942 14.9686C42.9821 14.7742 43.0015 14.5761 42.9999 14.3777C43.001 13.6713 42.7354 12.9896 42.2548 12.4652C41.7742 11.9409 41.1129 11.6127 40.3993 11.5419ZM35.1952 34.7198C35.0819 34.7187 34.9735 34.6741 34.8932 34.5954C34.8128 34.5168 34.7668 34.4103 34.7649 34.2988C34.7692 34.0618 34.9605 33.8735 35.1966 33.8735C35.4328 33.8735 35.624 34.0618 35.6269 34.2973C35.6247 34.4087 35.5785 34.5147 35.4981 34.5931C35.4178 34.6714 35.3097 34.7158 35.1966 34.7169L35.1952 34.7198ZM37.7741 24.0228L39.1475 22.667L38.6868 24.922L37.7741 24.0228ZM16.8344 11.1251L18.3339 12.6066L16.465 14.4477L14.5917 12.6066L16.1665 11.0538L16.8344 11.1251ZM23.3512 11.8359L24.1306 12.6066L22.2617 14.4477L20.3884 12.6066L21.3851 11.6218L23.3512 11.8359ZM12.3069 14.8559L13.5674 13.617L15.4363 15.461L13.5674 17.3021L12.7488 16.4986L12.3084 14.8544L12.3069 14.8559ZM11.8795 13.2574L11.4043 11.4876L12.5416 12.608L11.8795 13.2574ZM29.9244 18.3154L28.0555 20.1565L26.1821 18.3154L28.054 16.47L29.9244 18.3154ZM29.0798 15.461L30.9516 13.617L32.8206 15.461L30.9516 17.3049L29.0798 15.461ZM25.1578 17.3021L23.2845 15.461L25.1564 13.6156L27.0253 15.4596L25.1578 17.3021ZM24.1292 18.3154L22.2602 20.1565L20.3884 18.3154L22.2602 16.47L24.1292 18.3154ZM19.3626 17.3021L17.4893 15.461L19.3612 13.6156L21.2301 15.4596L19.3626 17.3021ZM18.3339 18.3154L16.465 20.1565L14.5917 18.3154L16.4635 16.47L18.3339 18.3154ZM13.5674 19.3245L15.4363 21.1684L14.3005 22.2859L13.5181 19.3687L13.5659 19.3216L13.5674 19.3245ZM14.7293 23.8872L16.4635 22.1789L18.3325 24.0228L16.4635 25.8639L14.8264 24.2512L14.7293 23.8872ZM17.4907 21.1684L19.3597 19.323L21.233 21.167L19.364 23.0081L17.4922 21.167L17.4907 21.1684ZM22.2602 22.1774L24.1321 24.0214L22.2602 25.8625L20.3884 24.0214L22.2602 22.1774ZM23.286 21.167L25.1578 19.3216L27.0268 21.1656L25.1578 23.0067L23.286 21.167ZM28.0526 22.176L29.9259 24.02L28.0569 25.8611L26.185 24.0171L28.0526 22.176ZM29.0812 21.1656L30.9502 19.3202L32.8235 21.1641L30.9545 23.0052L29.0812 21.1656ZM31.9788 18.3111L33.8478 16.4657L35.7211 18.3097L33.8521 20.1508L31.9788 18.3111ZM34.8764 15.4567L36.7454 13.6113L38.6173 15.461L36.7483 17.3049L34.875 15.4596L34.8764 15.4567ZM33.8478 14.4462L32.1744 12.7964L35.1908 13.1246L33.8478 14.4462ZM29.9273 12.6066L28.0583 14.4505L26.185 12.6066L26.6052 12.1927L29.8694 12.5495L29.9273 12.6066ZM19.3655 11.5932L19.1453 11.3792L19.5408 11.422L19.3669 11.5932H19.3655ZM13.5703 11.5961L12.6285 10.6684L14.3236 10.8539L13.5703 11.5961ZM19.3655 25.0333L21.1113 26.7531H17.6197L19.3655 25.0333ZM25.1607 25.0333L26.9065 26.7545H23.412L25.1607 25.0333ZM30.956 25.0333L32.7047 26.7559H29.2073L30.956 25.0333ZM31.9803 24.0228L33.8521 22.1774L35.7211 24.0214L33.8521 25.8625L31.9803 24.0228ZM34.8779 21.1684L36.7497 19.3245L38.6187 21.1656L36.7497 23.0109L34.8764 21.1698L34.8779 21.1684ZM39.6474 20.1551L37.7755 18.314L39.6445 16.47L40.2892 17.1037L39.6662 20.1351L39.6459 20.1565L39.6474 20.1551ZM40.3718 13.7326L39.6474 14.4462L38.6912 13.5086L40.1646 13.6684C40.2428 13.6798 40.3095 13.7055 40.3732 13.7312L40.3718 13.7326ZM17.8964 34.7184C17.7868 34.7121 17.6838 34.6648 17.6084 34.5861C17.533 34.5074 17.4911 34.4034 17.4911 34.2952C17.4911 34.187 17.533 34.083 17.6084 34.0043C17.6838 33.9256 17.7868 33.8783 17.8964 33.872C18.0056 33.8783 18.1083 33.9254 18.1834 34.0039C18.2585 34.0823 18.3003 34.186 18.3003 34.2938C18.3003 34.4016 18.2585 34.5053 18.1834 34.5837C18.1083 34.6621 18.0056 34.7092 17.8964 34.7155V34.7184ZM37.1989 26.7545H35.001L36.7497 25.0319L38.0971 26.3592C37.8262 26.6018 37.4843 26.7731 37.1989 26.7545Z"/>
</mask>
<path d="M40.3993 11.5419L10.5481 8.28782L8.72835 1.49572C8.66466 1.26815 8.52736 1.06726 8.33727 0.923537C8.14718 0.779811 7.91468 0.701095 7.67506 0.699334H3.1939C3.03225 0.484241 2.82207 0.309101 2.57994 0.187736C2.33781 0.0663701 2.07036 0.00210087 1.7987 0C1.32165 0 0.864147 0.18668 0.526826 0.518972C0.189505 0.851265 0 1.30195 0 1.77188C0 2.24182 0.189505 2.6925 0.526826 3.02479C0.864147 3.35709 1.32165 3.54377 1.7987 3.54377C2.37822 3.54377 2.86792 3.25833 3.1968 2.84158H6.8362L14.4135 31.1004C13.5867 31.9669 13.1257 33.111 13.124 34.3002C13.1235 34.9174 13.2464 35.5287 13.4859 36.0991C13.7254 36.6694 14.0766 37.1877 14.5196 37.6242C14.9626 38.0607 15.4886 38.4069 16.0675 38.643C16.6464 38.8791 17.2669 39.0004 17.8935 39C19.1595 39.0004 20.3738 38.5055 21.2695 37.6242C22.1653 36.7429 22.6691 35.5473 22.6702 34.3002C22.6676 33.9427 22.6224 33.5868 22.5355 33.2398H30.5517C30.4666 33.5871 30.4219 33.9429 30.4185 34.3002C30.4185 36.8977 32.5569 39 35.1937 39C37.8306 39 39.9647 36.8977 39.9647 34.3002C39.965 33.0528 39.4625 31.8564 38.5675 30.974C37.6726 30.0916 36.4585 29.5954 35.1923 29.5947C33.8159 29.5947 32.5844 30.1798 31.7122 31.0975H21.3735C20.9296 30.6247 20.3914 30.2471 19.7926 29.9885C19.1938 29.73 18.5473 29.5959 17.8935 29.5947C17.343 29.5947 16.8243 29.706 16.3331 29.8744L16.0695 28.8953H37.1974C38.0094 28.879 38.7922 28.5943 39.4202 28.087C40.0482 27.5797 40.4848 26.8792 40.6601 26.098L42.942 14.9686C42.9821 14.7742 43.0015 14.5761 42.9999 14.3777C43.001 13.6713 42.7354 12.9896 42.2548 12.4652C41.7742 11.9409 41.1129 11.6127 40.3993 11.5419ZM35.1952 34.7198C35.0819 34.7187 34.9735 34.6741 34.8932 34.5954C34.8128 34.5168 34.7668 34.4103 34.7649 34.2988C34.7692 34.0618 34.9605 33.8735 35.1966 33.8735C35.4328 33.8735 35.624 34.0618 35.6269 34.2973C35.6247 34.4087 35.5785 34.5147 35.4981 34.5931C35.4178 34.6714 35.3097 34.7158 35.1966 34.7169L35.1952 34.7198ZM37.7741 24.0228L39.1475 22.667L38.6868 24.922L37.7741 24.0228ZM16.8344 11.1251L18.3339 12.6066L16.465 14.4477L14.5917 12.6066L16.1665 11.0538L16.8344 11.1251ZM23.3512 11.8359L24.1306 12.6066L22.2617 14.4477L20.3884 12.6066L21.3851 11.6218L23.3512 11.8359ZM12.3069 14.8559L13.5674 13.617L15.4363 15.461L13.5674 17.3021L12.7488 16.4986L12.3084 14.8544L12.3069 14.8559ZM11.8795 13.2574L11.4043 11.4876L12.5416 12.608L11.8795 13.2574ZM29.9244 18.3154L28.0555 20.1565L26.1821 18.3154L28.054 16.47L29.9244 18.3154ZM29.0798 15.461L30.9516 13.617L32.8206 15.461L30.9516 17.3049L29.0798 15.461ZM25.1578 17.3021L23.2845 15.461L25.1564 13.6156L27.0253 15.4596L25.1578 17.3021ZM24.1292 18.3154L22.2602 20.1565L20.3884 18.3154L22.2602 16.47L24.1292 18.3154ZM19.3626 17.3021L17.4893 15.461L19.3612 13.6156L21.2301 15.4596L19.3626 17.3021ZM18.3339 18.3154L16.465 20.1565L14.5917 18.3154L16.4635 16.47L18.3339 18.3154ZM13.5674 19.3245L15.4363 21.1684L14.3005 22.2859L13.5181 19.3687L13.5659 19.3216L13.5674 19.3245ZM14.7293 23.8872L16.4635 22.1789L18.3325 24.0228L16.4635 25.8639L14.8264 24.2512L14.7293 23.8872ZM17.4907 21.1684L19.3597 19.323L21.233 21.167L19.364 23.0081L17.4922 21.167L17.4907 21.1684ZM22.2602 22.1774L24.1321 24.0214L22.2602 25.8625L20.3884 24.0214L22.2602 22.1774ZM23.286 21.167L25.1578 19.3216L27.0268 21.1656L25.1578 23.0067L23.286 21.167ZM28.0526 22.176L29.9259 24.02L28.0569 25.8611L26.185 24.0171L28.0526 22.176ZM29.0812 21.1656L30.9502 19.3202L32.8235 21.1641L30.9545 23.0052L29.0812 21.1656ZM31.9788 18.3111L33.8478 16.4657L35.7211 18.3097L33.8521 20.1508L31.9788 18.3111ZM34.8764 15.4567L36.7454 13.6113L38.6173 15.461L36.7483 17.3049L34.875 15.4596L34.8764 15.4567ZM33.8478 14.4462L32.1744 12.7964L35.1908 13.1246L33.8478 14.4462ZM29.9273 12.6066L28.0583 14.4505L26.185 12.6066L26.6052 12.1927L29.8694 12.5495L29.9273 12.6066ZM19.3655 11.5932L19.1453 11.3792L19.5408 11.422L19.3669 11.5932H19.3655ZM13.5703 11.5961L12.6285 10.6684L14.3236 10.8539L13.5703 11.5961ZM19.3655 25.0333L21.1113 26.7531H17.6197L19.3655 25.0333ZM25.1607 25.0333L26.9065 26.7545H23.412L25.1607 25.0333ZM30.956 25.0333L32.7047 26.7559H29.2073L30.956 25.0333ZM31.9803 24.0228L33.8521 22.1774L35.7211 24.0214L33.8521 25.8625L31.9803 24.0228ZM34.8779 21.1684L36.7497 19.3245L38.6187 21.1656L36.7497 23.0109L34.8764 21.1698L34.8779 21.1684ZM39.6474 20.1551L37.7755 18.314L39.6445 16.47L40.2892 17.1037L39.6662 20.1351L39.6459 20.1565L39.6474 20.1551ZM40.3718 13.7326L39.6474 14.4462L38.6912 13.5086L40.1646 13.6684C40.2428 13.6798 40.3095 13.7055 40.3732 13.7312L40.3718 13.7326ZM17.8964 34.7184C17.7868 34.7121 17.6838 34.6648 17.6084 34.5861C17.533 34.5074 17.4911 34.4034 17.4911 34.2952C17.4911 34.187 17.533 34.083 17.6084 34.0043C17.6838 33.9256 17.7868 33.8783 17.8964 33.872C18.0056 33.8783 18.1083 33.9254 18.1834 34.0039C18.2585 34.0823 18.3003 34.186 18.3003 34.2938C18.3003 34.4016 18.2585 34.5053 18.1834 34.5837C18.1083 34.6621 18.0056 34.7092 17.8964 34.7155V34.7184ZM37.1989 26.7545H35.001L36.7497 25.0319L38.0971 26.3592C37.8262 26.6018 37.4843 26.7731 37.1989 26.7545Z" fill="#0167F3" stroke="black" stroke-width="2" mask="url(#path-1-inside-1_138_6)"/>
<path d="M47.1364 19.7841V15.7273H66.25V19.7841H59.125V39H54.2614V19.7841H47.1364ZM75.0501 39.3409C73.2547 39.3409 71.7092 38.9773 70.4137 38.25C69.1259 37.5152 68.1334 36.4773 67.4365 35.1364C66.7395 33.7879 66.391 32.1932 66.391 30.3523C66.391 28.5568 66.7395 26.9811 67.4365 25.625C68.1334 24.2689 69.1145 23.2121 70.3797 22.4545C71.6524 21.697 73.1448 21.3182 74.8569 21.3182C76.0084 21.3182 77.0804 21.5038 78.0728 21.875C79.0728 22.2386 79.9441 22.7879 80.6865 23.5227C81.4365 24.2576 82.0198 25.1818 82.4365 26.2955C82.8531 27.4015 83.0615 28.697 83.0615 30.1818V31.5114H68.3228V28.5114H78.5047C78.5047 27.8144 78.3531 27.197 78.0501 26.6591C77.7471 26.1212 77.3266 25.7008 76.7887 25.3977C76.2584 25.0871 75.641 24.9318 74.9365 24.9318C74.2016 24.9318 73.5501 25.1023 72.9819 25.4432C72.4213 25.7765 71.9819 26.2273 71.6637 26.7955C71.3456 27.3561 71.1827 27.9811 71.1751 28.6705V31.5227C71.1751 32.3864 71.3342 33.1326 71.6524 33.7614C71.9781 34.3902 72.4365 34.875 73.0274 35.2159C73.6183 35.5568 74.3191 35.7273 75.1297 35.7273C75.6675 35.7273 76.16 35.6515 76.6069 35.5C77.0539 35.3485 77.4365 35.1212 77.7547 34.8182C78.0728 34.5152 78.3153 34.1439 78.4819 33.7045L82.9592 34C82.7319 35.0758 82.266 36.0152 81.5615 36.8182C80.8645 37.6136 79.963 38.2348 78.8569 38.6818C77.7584 39.1212 76.4895 39.3409 75.0501 39.3409ZM94.4269 39.3409C92.6391 39.3409 91.1012 38.9621 89.8133 38.2045C88.533 37.4394 87.5481 36.3788 86.8587 35.0227C86.1769 33.6667 85.836 32.1061 85.836 30.3409C85.836 28.553 86.1807 26.9848 86.8701 25.6364C87.5671 24.2803 88.5557 23.2235 89.836 22.4659C91.1163 21.7008 92.6391 21.3182 94.4042 21.3182C95.9269 21.3182 97.2603 21.5947 98.4042 22.1477C99.5481 22.7008 100.453 23.4773 101.12 24.4773C101.787 25.4773 102.154 26.6515 102.222 28H97.6542C97.5254 27.1288 97.1845 26.428 96.6315 25.8977C96.086 25.3598 95.3701 25.0909 94.4837 25.0909C93.7337 25.0909 93.0784 25.2955 92.5178 25.7045C91.9648 26.1061 91.533 26.6932 91.2224 27.4659C90.9118 28.2386 90.7565 29.1742 90.7565 30.2727C90.7565 31.3864 90.908 32.3333 91.211 33.1136C91.5216 33.8939 91.9572 34.4886 92.5178 34.8977C93.0784 35.3068 93.7337 35.5114 94.4837 35.5114C95.0368 35.5114 95.533 35.3977 95.9724 35.1705C96.4194 34.9432 96.7868 34.6136 97.0747 34.1818C97.3701 33.7424 97.5633 33.2159 97.6542 32.6023H102.222C102.147 33.9356 101.783 35.1098 101.131 36.125C100.488 37.1326 99.5974 37.9205 98.461 38.4886C97.3247 39.0568 95.98 39.3409 94.4269 39.3409ZM110.483 28.9091V39H105.642V15.7273H110.346V24.625H110.551C110.945 23.5947 111.581 22.7879 112.46 22.2045C113.339 21.6136 114.441 21.3182 115.767 21.3182C116.979 21.3182 118.036 21.5833 118.937 22.1136C119.846 22.6364 120.551 23.3902 121.051 24.375C121.558 25.3523 121.808 26.5227 121.801 27.8864V39H116.96V28.75C116.968 27.6742 116.695 26.8371 116.142 26.2386C115.596 25.6402 114.831 25.3409 113.846 25.3409C113.187 25.3409 112.604 25.4811 112.096 25.7614C111.596 26.0417 111.202 26.4508 110.915 26.9886C110.634 27.5189 110.49 28.1591 110.483 28.9091Z" fill="#0167F3"/>
<path d="M138.646 22.4205C138.556 21.5038 138.165 20.7917 137.476 20.2841C136.787 19.7765 135.851 19.5227 134.669 19.5227C133.866 19.5227 133.188 19.6364 132.635 19.8636C132.082 20.0833 131.658 20.3902 131.362 20.7841C131.075 21.178 130.931 21.625 130.931 22.125C130.915 22.5417 131.003 22.9053 131.192 23.2159C131.389 23.5265 131.658 23.7955 131.999 24.0227C132.34 24.2424 132.734 24.4356 133.181 24.6023C133.628 24.7614 134.105 24.8977 134.612 25.0114L136.703 25.5114C137.718 25.7386 138.65 26.0417 139.499 26.4205C140.347 26.7992 141.082 27.2652 141.703 27.8182C142.325 28.3712 142.806 29.0227 143.146 29.7727C143.495 30.5227 143.673 31.3826 143.681 32.3523C143.673 33.7765 143.309 35.0114 142.59 36.0568C141.878 37.0947 140.847 37.9015 139.499 38.4773C138.158 39.0455 136.54 39.3295 134.646 39.3295C132.768 39.3295 131.131 39.0417 129.737 38.4659C128.351 37.8902 127.268 37.0379 126.487 35.9091C125.715 34.7727 125.309 33.3674 125.271 31.6932H130.033C130.086 32.4735 130.309 33.125 130.703 33.6477C131.105 34.1629 131.639 34.553 132.306 34.8182C132.98 35.0758 133.741 35.2045 134.59 35.2045C135.423 35.2045 136.146 35.0833 136.76 34.8409C137.381 34.5985 137.862 34.2614 138.203 33.8295C138.544 33.3977 138.715 32.9015 138.715 32.3409C138.715 31.8182 138.559 31.3788 138.249 31.0227C137.946 30.6667 137.499 30.3636 136.908 30.1136C136.325 29.8636 135.609 29.6364 134.76 29.4318L132.226 28.7955C130.264 28.3182 128.715 27.572 127.578 26.5568C126.442 25.5417 125.878 24.1742 125.885 22.4545C125.878 21.0455 126.253 19.8144 127.01 18.7614C127.775 17.7083 128.825 16.8864 130.158 16.2955C131.491 15.7045 133.006 15.4091 134.703 15.4091C136.431 15.4091 137.938 15.7045 139.226 16.2955C140.521 16.8864 141.529 17.7083 142.249 18.7614C142.968 19.8144 143.34 21.0341 143.362 22.4205H138.646ZM156.503 21.5455V25.1818H145.992V21.5455H156.503ZM148.378 17.3636H153.219V33.6364C153.219 34.0833 153.287 34.4318 153.424 34.6818C153.56 34.9242 153.75 35.0947 153.992 35.1932C154.242 35.2917 154.53 35.3409 154.856 35.3409C155.083 35.3409 155.31 35.322 155.537 35.2841C155.765 35.2386 155.939 35.2045 156.06 35.1818L156.822 38.7841C156.579 38.8598 156.238 38.947 155.799 39.0455C155.359 39.1515 154.825 39.2159 154.197 39.2386C153.03 39.2841 152.007 39.1288 151.128 38.7727C150.257 38.4167 149.579 37.8636 149.094 37.1136C148.609 36.3636 148.371 35.4167 148.378 34.2727V17.3636ZM167.676 39.3409C165.911 39.3409 164.384 38.9659 163.096 38.2159C161.816 37.4583 160.827 36.4053 160.13 35.0568C159.433 33.7008 159.085 32.1288 159.085 30.3409C159.085 28.5379 159.433 26.9621 160.13 25.6136C160.827 24.2576 161.816 23.2045 163.096 22.4545C164.384 21.697 165.911 21.3182 167.676 21.3182C169.441 21.3182 170.964 21.697 172.244 22.4545C173.532 23.2045 174.524 24.2576 175.221 25.6136C175.918 26.9621 176.267 28.5379 176.267 30.3409C176.267 32.1288 175.918 33.7008 175.221 35.0568C174.524 36.4053 173.532 37.4583 172.244 38.2159C170.964 38.9659 169.441 39.3409 167.676 39.3409ZM167.698 35.5909C168.501 35.5909 169.172 35.3636 169.71 34.9091C170.248 34.447 170.653 33.8182 170.926 33.0227C171.206 32.2273 171.346 31.322 171.346 30.3068C171.346 29.2917 171.206 28.3864 170.926 27.5909C170.653 26.7955 170.248 26.1667 169.71 25.7045C169.172 25.2424 168.501 25.0114 167.698 25.0114C166.888 25.0114 166.206 25.2424 165.653 25.7045C165.107 26.1667 164.695 26.7955 164.414 27.5909C164.142 28.3864 164.005 29.2917 164.005 30.3068C164.005 31.322 164.142 32.2273 164.414 33.0227C164.695 33.8182 165.107 34.447 165.653 34.9091C166.206 35.3636 166.888 35.5909 167.698 35.5909ZM179.734 39V21.5455H184.428V24.5909H184.609C184.928 23.5076 185.462 22.6894 186.212 22.1364C186.962 21.5758 187.825 21.2955 188.803 21.2955C189.045 21.2955 189.306 21.3106 189.587 21.3409C189.867 21.3712 190.113 21.4129 190.325 21.4659V25.7614C190.098 25.6932 189.784 25.6326 189.382 25.5795C188.981 25.5265 188.613 25.5 188.28 25.5C187.568 25.5 186.931 25.6553 186.371 25.9659C185.818 26.2689 185.378 26.6932 185.053 27.2386C184.734 27.7841 184.575 28.4129 184.575 29.125V39H179.734ZM200.29 39.3409C198.495 39.3409 196.949 38.9773 195.654 38.25C194.366 37.5152 193.373 36.4773 192.676 35.1364C191.98 33.7879 191.631 32.1932 191.631 30.3523C191.631 28.5568 191.98 26.9811 192.676 25.625C193.373 24.2689 194.355 23.2121 195.62 22.4545C196.892 21.697 198.385 21.3182 200.097 21.3182C201.248 21.3182 202.32 21.5038 203.313 21.875C204.313 22.2386 205.184 22.7879 205.926 23.5227C206.676 24.2576 207.26 25.1818 207.676 26.2955C208.093 27.4015 208.301 28.697 208.301 30.1818V31.5114H193.563V28.5114H203.745C203.745 27.8144 203.593 27.197 203.29 26.6591C202.987 26.1212 202.567 25.7008 202.029 25.3977C201.498 25.0871 200.881 24.9318 200.176 24.9318C199.442 24.9318 198.79 25.1023 198.222 25.4432C197.661 25.7765 197.222 26.2273 196.904 26.7955C196.586 27.3561 196.423 27.9811 196.415 28.6705V31.5227C196.415 32.3864 196.574 33.1326 196.892 33.7614C197.218 34.3902 197.676 34.875 198.267 35.2159C198.858 35.5568 199.559 35.7273 200.37 35.7273C200.908 35.7273 201.4 35.6515 201.847 35.5C202.294 35.3485 202.676 35.1212 202.995 34.8182C203.313 34.5152 203.555 34.1439 203.722 33.7045L208.199 34C207.972 35.0758 207.506 36.0152 206.801 36.8182C206.105 37.6136 205.203 38.2348 204.097 38.6818C202.998 39.1212 201.73 39.3409 200.29 39.3409Z" fill="black"/>
</svg>
